<svg width="128" height="128" viewBox="0 0 128 128" fill="none" xmlns="http://www.w3.org/2000/svg">
<path d="M17.6222 56V2.88614H65.3614V17.4925H35.1371V24.7008H64.0336V37.3469H35.1371V56H17.6222ZM69.7876 56V2.88614H87.3025V41.3937H115.63V56H69.7876ZM41.2947 125.77C23.4004 125.77 11.4498 114.452 11.4498 97.4431C11.4498 80.434 23.4004 69.1157 41.2947 69.1157C54.257 69.1157 67.5355 74.8064 69.306 92.764H52.613C51.1587 86.9468 47.0487 84.2278 41.2947 84.2278C34.3393 84.2278 28.8383 89.4128 28.8383 97.4431C28.8383 105.473 34.3393 110.658 41.2947 110.658C47.0487 110.658 51.1587 107.939 52.613 101.996H69.306C67.5355 120.08 54.3835 125.77 41.2947 125.77ZM72.7886 124V70.8861H90.3035V109.394H118.631V124H72.7886Z" fill="#D43647"/>
</svg>
